<svg xmlns="http://www.w3.org/2000/svg" viewBox="0 0 379.71 103.63"><defs><style>.cls-1{fill:#44b2e8;}</style></defs><g id="Layer_2" data-name="Layer 2"><g id="Layer_1-2" data-name="Layer 1"><path class="cls-1" d="M176.14,32.52a19.18,19.18,0,0,0-5.82-3.72,17.88,17.88,0,0,0-6.87-1.37q-6.19,0-12.8,5.14a21.16,21.16,0,0,0-6.35-3.93,18,18,0,0,0-19.14,4,18.33,18.33,0,0,0-3.83,5.61A16.17,16.17,0,0,0,119.91,45V73.28a3.86,3.86,0,0,0,1.47,3.51,5.72,5.72,0,0,0,3.78,1.42,4.8,4.8,0,0,0,3.35-1.37,5.44,5.44,0,0,0,1.78-3V45.37a7.42,7.42,0,0,1,2.37-5.45,7.6,7.6,0,0,1,10.43-.06,7.21,7.21,0,0,1,2.42,5.41V73.59a4.16,4.16,0,0,0,1.57,3.25,5.31,5.31,0,0,0,3.57,1.37,5,5,0,0,0,3.72-1.53,4.93,4.93,0,0,0,1.52-3.61V45.27a6.7,6.7,0,0,1,2.36-5.56,8.15,8.15,0,0,1,5.2-1.89A7.35,7.35,0,0,1,169,40a7.23,7.23,0,0,1,2.15,5.25v27.8a5.21,5.21,0,0,0,5.14,5.14A5.56,5.56,0,0,0,180,76.79a4.17,4.17,0,0,0,1.62-3.2V45a16.42,16.42,0,0,0-1.46-6.87A17.76,17.76,0,0,0,176.14,32.52Z"/><path class="cls-1" d="M228.38,35a25.87,25.87,0,0,0-8.08-5.45,24.34,24.34,0,0,0-9.76-2,24.07,24.07,0,0,0-9.85,2A26.32,26.32,0,0,0,187.1,43.17a23.88,23.88,0,0,0-2,9.75V84.75a4.75,4.75,0,0,0,1.63,3.36A5.42,5.42,0,0,0,194,88a4.86,4.86,0,0,0,1.47-3.57V74q8.51,4.3,15.1,4.3a25.21,25.21,0,0,0,10-2,25,25,0,0,0,8.08-5.46A25.58,25.58,0,0,0,234,62.79a25.28,25.28,0,0,0,1.93-9.87,24.07,24.07,0,0,0-2-9.85A26.61,26.61,0,0,0,228.38,35Zm-4,23.82a16,16,0,0,1-3.14,4.82,14.53,14.53,0,0,1-4.77,3.31,14.88,14.88,0,0,1-5.94,1.21A15.11,15.11,0,0,1,204.78,67,14.75,14.75,0,0,1,200,63.89a14.92,14.92,0,0,1-3.3-4.83,15.16,15.16,0,0,1-1.21-6.14,14.68,14.68,0,0,1,1.15-5.77,15.15,15.15,0,0,1,3.2-4.77,15.87,15.87,0,0,1,4.78-3.25,15,15,0,0,1,16.52,3.15,15.52,15.52,0,0,1,3.25,4.77,14.28,14.28,0,0,1,1.21,5.87A14.94,14.94,0,0,1,224.39,58.8Z"/><path class="cls-1" d="M282.14,35.88A25.07,25.07,0,0,0,275,30.26a24.64,24.64,0,0,0-8.86-2.72,12.29,12.29,0,0,0-1.47-.11h-1.47a24.46,24.46,0,0,0-14.06,4.2,25.74,25.74,0,0,0-9.23,11,28.57,28.57,0,0,0-1.63,4.94,23.57,23.57,0,0,0-.57,5.24,24.38,24.38,0,0,0,.57,5.3A25.43,25.43,0,0,0,239.92,63a26.26,26.26,0,0,0,9.23,11,24.28,24.28,0,0,0,14.06,4.25,28.8,28.8,0,0,0,5.66-.53c.91-.28,1.79-.56,2.63-.84a22.33,22.33,0,0,0,2.41-.94c.42-.21,1.08-.56,2-1.05s1.54-.8,1.89-.94a4,4,0,0,0,.79,2.3,5.38,5.38,0,0,0,1.52,1.32,4.7,4.7,0,0,0,1.73.57,14.08,14.08,0,0,0,1.63.11A5,5,0,0,0,287,76.68a4.83,4.83,0,0,0,1.57-3.61V52.82a24.48,24.48,0,0,0-1.73-9.18A26.3,26.3,0,0,0,282.14,35.88ZM277,58.8a15.35,15.35,0,0,1-3.25,4.77,14.56,14.56,0,0,1-4.83,3.2,15,15,0,0,1-5.82,1.15,13.15,13.15,0,0,1-5.5-1.2,17.1,17.1,0,0,1-4.83-3.25,15.54,15.54,0,0,1-3.41-4.77,13.86,13.86,0,0,1-1.26-5.88,14,14,0,0,1,1.21-5.77,15.57,15.57,0,0,1,3.31-4.83,15.87,15.87,0,0,1,4.77-3.3,13.8,13.8,0,0,1,5.71-1.21A13.6,13.6,0,0,1,268.87,39a17.07,17.07,0,0,1,4.83,3.31A14.88,14.88,0,0,1,277,47.1a14.16,14.16,0,0,1,1.21,5.72A14.53,14.53,0,0,1,277,58.8Z"/><path class="cls-1" d="M306.11,42.33A16.47,16.47,0,0,1,311,39a13.93,13.93,0,0,1,5.83-1.26,14.46,14.46,0,0,1,10,3.88A5,5,0,0,0,330.45,43a6.8,6.8,0,0,0,2.05-.32,4.12,4.12,0,0,0,1.73-1,5.13,5.13,0,0,0,1.57-3.77,4.9,4.9,0,0,0-.26-1.52,3.86,3.86,0,0,0-1-1.52h.11a24.27,24.27,0,0,0-17.83-7.35,23.27,23.27,0,0,0-9.76,2.1,27.46,27.46,0,0,0-8.13,5.61,27,27,0,0,0-5.56,8.08,23.1,23.1,0,0,0-2.05,9.6,23.65,23.65,0,0,0,2.05,9.75A26.35,26.35,0,0,0,307,76.16a24,24,0,0,0,9.87,2,24.63,24.63,0,0,0,9.7-1.84,25.1,25.1,0,0,0,8-5.51,3.18,3.18,0,0,0,.95-1.41,5.2,5.2,0,0,0,.31-1.74,4.69,4.69,0,0,0-1.68-3.46,4.82,4.82,0,0,0-3.56-1.68,4.1,4.1,0,0,0-3.15,1,15.58,15.58,0,0,1-10.59,4.3,11.9,11.9,0,0,1-5.77-1,15.27,15.27,0,0,1-4.83-3.36,17,17,0,0,1-3.36-4.93,14,14,0,0,1-.05-11.49A15.79,15.79,0,0,1,306.11,42.33Z"/><path class="cls-1" d="M378.24,18.52a4.86,4.86,0,0,0-3.57-1.47h-12V4.72A4.7,4.7,0,0,0,361,1.36a5.42,5.42,0,0,0-7.3.11A4.89,4.89,0,0,0,352.28,5V10h0v7.07H340a4.66,4.66,0,0,0-3.36,1.62,5.12,5.12,0,0,0-1.36,3.52A5.11,5.11,0,0,0,336.7,26a4.85,4.85,0,0,0,3.56,1.47h12V39.76a4.63,4.63,0,0,0,1.63,3.35,5.39,5.39,0,0,0,7.29-.1,4.86,4.86,0,0,0,1.47-3.57v-12H375a4.68,4.68,0,0,0,3.35-1.62,5.39,5.39,0,0,0-.1-7.29Z"/><path class="cls-1" d="M48.51,6.61A48.51,48.51,0,1,0,97,55.12,48.51,48.51,0,0,0,48.51,6.61Zm-26,73.14a10.82,10.82,0,0,1-9.67-15.66h0l9.68-19.35q4.83,9.67,9.68,19.35A10.83,10.83,0,0,1,22.52,79.75Zm3.37-39.3a10.82,10.82,0,1,1,19.36,0h0L35.57,59.81Q30.74,50.14,25.89,40.45ZM48.6,79.75a10.82,10.82,0,0,1-9.67-15.66h0q4.83-9.68,9.68-19.35l9.67,19.35A10.82,10.82,0,0,1,48.6,79.75ZM52,40.45h0a10.82,10.82,0,1,1,19.35,0q-4.84,9.69-9.68,19.36Q56.79,50.14,52,40.45Zm22.72,39.3A10.82,10.82,0,0,1,65,64.09l9.67-19.35q4.85,9.67,9.68,19.35h0A10.82,10.82,0,0,1,74.68,79.75Z"/><path class="cls-1" d="M357.47,79.11a12.81,12.81,0,1,1,12.8-12.81A12.83,12.83,0,0,1,357.47,79.11Zm0-23.81a11,11,0,1,0,11,11A11,11,0,0,0,357.47,55.3Z"/><path class="cls-1" d="M360.36,67a5.91,5.91,0,0,0,2.32-1.84,5.55,5.55,0,0,0,1-3.37,4.82,4.82,0,0,0-.59-2.48,4.73,4.73,0,0,0-1.59-1.62,5.75,5.75,0,0,0-2-.78,13.7,13.7,0,0,0-2.71-.22h-5.24V74.86h3V67.92h2.75l5.84,6.94h3.94Zm.21-5a4.13,4.13,0,0,1-.23,1.49,2.73,2.73,0,0,1-.69,1,2.63,2.63,0,0,1-1.24.64,8.26,8.26,0,0,1-1.84.19h-2V59.4H357a7.91,7.91,0,0,1,1.56.13,2.92,2.92,0,0,1,1.07.42,2,2,0,0,1,.75.83A2.94,2.94,0,0,1,360.57,62Z"/></g></g></svg>